<mxfile host="app.diagrams.net" agent="Mozilla/5.0 (Windows NT 10.0; Win64; x64) AppleWebKit/537.36 (KHTML, like Gecko) Chrome/131.0.0.0 Safari/537.36" version="25.0.1">
  <diagram name="Page-1" id="DPvpC3YPXqV1qgPB881W">
    <mxGraphModel grid="1" page="1" gridSize="10" guides="1" tooltips="1" connect="1" arrows="1" fold="1" pageScale="1" pageWidth="850" pageHeight="1100" math="0" shadow="0">
      <root>
        <mxCell id="0" />
        <mxCell id="1" parent="0" />
        <mxCell id="mPEIdbcuHd-g_guQNKy6-1" value="Users" style="whiteSpace=wrap;html=1;align=center;" vertex="1" parent="1">
          <mxGeometry x="357.5" y="190" width="100" height="30" as="geometry" />
        </mxCell>
        <mxCell id="mPEIdbcuHd-g_guQNKy6-2" value="Posts" style="whiteSpace=wrap;html=1;align=center;" vertex="1" parent="1">
          <mxGeometry x="180" y="430" width="100" height="30" as="geometry" />
        </mxCell>
        <mxCell id="mPEIdbcuHd-g_guQNKy6-4" value="Comments" style="whiteSpace=wrap;html=1;align=center;" vertex="1" parent="1">
          <mxGeometry x="617.5" y="200" width="100" height="30" as="geometry" />
        </mxCell>
        <mxCell id="mPEIdbcuHd-g_guQNKy6-5" value="Categories" style="whiteSpace=wrap;html=1;align=center;" vertex="1" parent="1">
          <mxGeometry x="126.25" y="680" width="100" height="30" as="geometry" />
        </mxCell>
        <mxCell id="mPEIdbcuHd-g_guQNKy6-6" value="Tags" style="whiteSpace=wrap;html=1;align=center;" vertex="1" parent="1">
          <mxGeometry x="251.25" y="680" width="100" height="30" as="geometry" />
        </mxCell>
        <mxCell id="mPEIdbcuHd-g_guQNKy6-8" value="creates" style="shape=rhombus;perimeter=rhombusPerimeter;whiteSpace=wrap;html=1;align=center;" vertex="1" parent="1">
          <mxGeometry x="325" y="280" width="60" height="50" as="geometry" />
        </mxCell>
        <mxCell id="mPEIdbcuHd-g_guQNKy6-11" value="" style="endArrow=none;html=1;rounded=0;entryX=1;entryY=1;entryDx=0;entryDy=0;startArrow=classic;startFill=1;exitX=1;exitY=0.5;exitDx=0;exitDy=0;" edge="1" parent="1" source="mPEIdbcuHd-g_guQNKy6-8" target="mPEIdbcuHd-g_guQNKy6-1">
          <mxGeometry relative="1" as="geometry">
            <mxPoint x="350" y="327.5000000000001" as="sourcePoint" />
            <mxPoint x="457.5000000000002" y="222.5" as="targetPoint" />
            <Array as="points" />
          </mxGeometry>
        </mxCell>
        <mxCell id="mPEIdbcuHd-g_guQNKy6-12" value="1" style="resizable=0;html=1;whiteSpace=wrap;align=right;verticalAlign=bottom;" connectable="0" vertex="1" parent="mPEIdbcuHd-g_guQNKy6-11">
          <mxGeometry x="1" relative="1" as="geometry">
            <mxPoint x="-17" y="17" as="offset" />
          </mxGeometry>
        </mxCell>
        <mxCell id="mPEIdbcuHd-g_guQNKy6-13" value="" style="endArrow=none;html=1;rounded=0;entryX=0.5;entryY=1;entryDx=0;entryDy=0;startArrow=classic;startFill=1;exitX=0.869;exitY=0.001;exitDx=0;exitDy=0;exitPerimeter=0;" edge="1" parent="1" source="mPEIdbcuHd-g_guQNKy6-2" target="mPEIdbcuHd-g_guQNKy6-8">
          <mxGeometry relative="1" as="geometry">
            <mxPoint x="270.70000000000005" y="430.00000000000006" as="sourcePoint" />
            <mxPoint x="357.5" y="333.42000000000013" as="targetPoint" />
            <Array as="points" />
          </mxGeometry>
        </mxCell>
        <mxCell id="mPEIdbcuHd-g_guQNKy6-14" value="N" style="resizable=0;html=1;whiteSpace=wrap;align=right;verticalAlign=bottom;" connectable="0" vertex="1" parent="mPEIdbcuHd-g_guQNKy6-13">
          <mxGeometry x="1" relative="1" as="geometry">
            <mxPoint x="-80" y="86" as="offset" />
          </mxGeometry>
        </mxCell>
        <mxCell id="mPEIdbcuHd-g_guQNKy6-15" value="has" style="shape=rhombus;perimeter=rhombusPerimeter;whiteSpace=wrap;html=1;align=center;" vertex="1" parent="1">
          <mxGeometry x="385" y="330" width="60" height="50" as="geometry" />
        </mxCell>
        <mxCell id="mPEIdbcuHd-g_guQNKy6-16" value="" style="endArrow=none;html=1;rounded=0;exitX=1;exitY=0;exitDx=0;exitDy=0;entryX=0;entryY=1;entryDx=0;entryDy=0;" edge="1" parent="1" source="mPEIdbcuHd-g_guQNKy6-2" target="mPEIdbcuHd-g_guQNKy6-15">
          <mxGeometry relative="1" as="geometry">
            <mxPoint x="500" y="460" as="sourcePoint" />
            <mxPoint x="400" y="430" as="targetPoint" />
            <Array as="points" />
          </mxGeometry>
        </mxCell>
        <mxCell id="mPEIdbcuHd-g_guQNKy6-19" value="1" style="resizable=0;html=1;whiteSpace=wrap;align=right;verticalAlign=bottom;" connectable="0" vertex="1" parent="1">
          <mxGeometry x="292.5" y="445" as="geometry" />
        </mxCell>
        <mxCell id="mPEIdbcuHd-g_guQNKy6-20" value="writes" style="shape=rhombus;perimeter=rhombusPerimeter;whiteSpace=wrap;html=1;align=center;" vertex="1" parent="1">
          <mxGeometry x="500" y="190" width="60" height="50" as="geometry" />
        </mxCell>
        <mxCell id="mPEIdbcuHd-g_guQNKy6-22" value="" style="endArrow=none;html=1;rounded=0;entryX=1;entryY=0.5;entryDx=0;entryDy=0;exitX=0;exitY=0.5;exitDx=0;exitDy=0;" edge="1" parent="1" source="mPEIdbcuHd-g_guQNKy6-20" target="mPEIdbcuHd-g_guQNKy6-1">
          <mxGeometry relative="1" as="geometry">
            <mxPoint x="517.5" y="235" as="sourcePoint" />
            <mxPoint x="488.64285714285734" y="349.71000000000004" as="targetPoint" />
          </mxGeometry>
        </mxCell>
        <mxCell id="mPEIdbcuHd-g_guQNKy6-23" value="" style="endArrow=none;html=1;rounded=0;entryX=1;entryY=0.5;entryDx=0;entryDy=0;exitX=0;exitY=0.5;exitDx=0;exitDy=0;" edge="1" parent="1" source="mPEIdbcuHd-g_guQNKy6-4" target="mPEIdbcuHd-g_guQNKy6-20">
          <mxGeometry relative="1" as="geometry">
            <mxPoint x="637.5" y="234.71000000000004" as="sourcePoint" />
            <mxPoint x="577.5" y="234.71000000000004" as="targetPoint" />
          </mxGeometry>
        </mxCell>
        <mxCell id="mPEIdbcuHd-g_guQNKy6-24" value="1" style="resizable=0;html=1;whiteSpace=wrap;align=right;verticalAlign=bottom;" connectable="0" vertex="1" parent="1">
          <mxGeometry x="467.5" y="250" as="geometry">
            <mxPoint x="7" y="-23" as="offset" />
          </mxGeometry>
        </mxCell>
        <mxCell id="mPEIdbcuHd-g_guQNKy6-27" value="" style="endArrow=none;html=1;rounded=0;entryX=0;entryY=1;entryDx=0;entryDy=0;exitX=0.567;exitY=-0.027;exitDx=0;exitDy=0;exitPerimeter=0;" edge="1" parent="1" source="mPEIdbcuHd-g_guQNKy6-123" target="mPEIdbcuHd-g_guQNKy6-2">
          <mxGeometry relative="1" as="geometry">
            <mxPoint x="180" y="510" as="sourcePoint" />
            <mxPoint x="456.5" y="380" as="targetPoint" />
          </mxGeometry>
        </mxCell>
        <mxCell id="mPEIdbcuHd-g_guQNKy6-28" value="" style="endArrow=none;html=1;rounded=0;exitX=0.5;exitY=0;exitDx=0;exitDy=0;entryX=0.56;entryY=1.008;entryDx=0;entryDy=0;entryPerimeter=0;" edge="1" parent="1" source="mPEIdbcuHd-g_guQNKy6-5" target="mPEIdbcuHd-g_guQNKy6-123">
          <mxGeometry relative="1" as="geometry">
            <mxPoint x="204.04" y="660" as="sourcePoint" />
            <mxPoint x="176" y="600" as="targetPoint" />
            <Array as="points" />
          </mxGeometry>
        </mxCell>
        <mxCell id="mPEIdbcuHd-g_guQNKy6-29" value="N" style="resizable=0;html=1;whiteSpace=wrap;align=right;verticalAlign=bottom;" connectable="0" vertex="1" parent="1">
          <mxGeometry x="197.5" y="480.00428571428563" as="geometry" />
        </mxCell>
        <mxCell id="mPEIdbcuHd-g_guQNKy6-30" value="N" style="resizable=0;html=1;whiteSpace=wrap;align=right;verticalAlign=bottom;" connectable="0" vertex="1" parent="1">
          <mxGeometry x="191.25" y="680.0042857142857" as="geometry" />
        </mxCell>
        <mxCell id="mPEIdbcuHd-g_guQNKy6-33" value="" style="endArrow=none;html=1;rounded=0;entryX=1;entryY=1;entryDx=0;entryDy=0;exitX=0.456;exitY=-0.068;exitDx=0;exitDy=0;exitPerimeter=0;" edge="1" parent="1" source="mPEIdbcuHd-g_guQNKy6-124" target="mPEIdbcuHd-g_guQNKy6-2">
          <mxGeometry relative="1" as="geometry">
            <mxPoint x="280" y="510" as="sourcePoint" />
            <mxPoint x="279.30999999999995" y="460.5" as="targetPoint" />
          </mxGeometry>
        </mxCell>
        <mxCell id="mPEIdbcuHd-g_guQNKy6-36" value="N" style="resizable=0;html=1;whiteSpace=wrap;align=right;verticalAlign=bottom;" connectable="0" vertex="1" parent="1">
          <mxGeometry x="620" y="250.00428571428563" as="geometry" />
        </mxCell>
        <mxCell id="mPEIdbcuHd-g_guQNKy6-37" value="N" style="resizable=0;html=1;whiteSpace=wrap;align=right;verticalAlign=bottom;" connectable="0" vertex="1" parent="1">
          <mxGeometry x="607.5" y="230.00428571428563" as="geometry" />
        </mxCell>
        <mxCell id="mPEIdbcuHd-g_guQNKy6-38" value="N" style="resizable=0;html=1;whiteSpace=wrap;align=right;verticalAlign=bottom;" connectable="0" vertex="1" parent="1">
          <mxGeometry x="273.75" y="680.0042857142857" as="geometry" />
        </mxCell>
        <mxCell id="mPEIdbcuHd-g_guQNKy6-39" value="N" style="resizable=0;html=1;whiteSpace=wrap;align=right;verticalAlign=bottom;" connectable="0" vertex="1" parent="1">
          <mxGeometry x="280" y="480.00428571428574" as="geometry" />
        </mxCell>
        <mxCell id="mPEIdbcuHd-g_guQNKy6-40" value="uploads" style="shape=rhombus;perimeter=rhombusPerimeter;whiteSpace=wrap;html=1;align=center;" vertex="1" parent="1">
          <mxGeometry x="232.5" y="250" width="60" height="50" as="geometry" />
        </mxCell>
        <mxCell id="mPEIdbcuHd-g_guQNKy6-42" value="" style="endArrow=none;html=1;rounded=0;exitX=0;exitY=1;exitDx=0;exitDy=0;entryX=1;entryY=0;entryDx=0;entryDy=0;" edge="1" parent="1" source="mPEIdbcuHd-g_guQNKy6-4" target="mPEIdbcuHd-g_guQNKy6-15">
          <mxGeometry relative="1" as="geometry">
            <mxPoint x="687.5" y="330.29" as="sourcePoint" />
            <mxPoint x="470" y="380" as="targetPoint" />
          </mxGeometry>
        </mxCell>
        <mxCell id="mPEIdbcuHd-g_guQNKy6-43" value="" style="endArrow=none;html=1;rounded=0;entryX=1;entryY=0.5;entryDx=0;entryDy=0;exitX=0;exitY=1;exitDx=0;exitDy=0;" edge="1" parent="1" source="mPEIdbcuHd-g_guQNKy6-1" target="mPEIdbcuHd-g_guQNKy6-40">
          <mxGeometry relative="1" as="geometry">
            <mxPoint x="357.5" y="234.71000000000004" as="sourcePoint" />
            <mxPoint x="297.5" y="234.71000000000004" as="targetPoint" />
          </mxGeometry>
        </mxCell>
        <mxCell id="mPEIdbcuHd-g_guQNKy6-45" value="" style="endArrow=none;html=1;rounded=0;entryX=1;entryY=0.5;entryDx=0;entryDy=0;exitX=0;exitY=0.5;exitDx=0;exitDy=0;" edge="1" parent="1" source="mPEIdbcuHd-g_guQNKy6-40" target="mPEIdbcuHd-g_guQNKy6-7">
          <mxGeometry relative="1" as="geometry">
            <mxPoint x="237.5" y="234.71000000000004" as="sourcePoint" />
            <mxPoint x="177.5" y="234.71000000000004" as="targetPoint" />
          </mxGeometry>
        </mxCell>
        <mxCell id="mPEIdbcuHd-g_guQNKy6-7" value="Media" style="whiteSpace=wrap;html=1;align=center;" vertex="1" parent="1">
          <mxGeometry x="92.5" y="260" width="100" height="30" as="geometry" />
        </mxCell>
        <mxCell id="mPEIdbcuHd-g_guQNKy6-46" value="1" style="resizable=0;html=1;whiteSpace=wrap;align=right;verticalAlign=bottom;" connectable="0" vertex="1" parent="1">
          <mxGeometry x="360" y="239.99999999999994" as="geometry" />
        </mxCell>
        <mxCell id="mPEIdbcuHd-g_guQNKy6-48" value="N" style="resizable=0;html=1;whiteSpace=wrap;align=right;verticalAlign=bottom;" connectable="0" vertex="1" parent="1">
          <mxGeometry x="197.5" y="285" as="geometry">
            <mxPoint x="12" y="6" as="offset" />
          </mxGeometry>
        </mxCell>
        <mxCell id="mPEIdbcuHd-g_guQNKy6-51" value="UserID" style="ellipse;whiteSpace=wrap;html=1;align=center;fontStyle=4;" vertex="1" parent="1">
          <mxGeometry x="391.25" y="80" width="72.5" height="30" as="geometry" />
        </mxCell>
        <mxCell id="mPEIdbcuHd-g_guQNKy6-52" value="Username" style="ellipse;whiteSpace=wrap;html=1;align=center;" vertex="1" parent="1">
          <mxGeometry x="320" y="90" width="70" height="30" as="geometry" />
        </mxCell>
        <mxCell id="mPEIdbcuHd-g_guQNKy6-54" value="Role" style="ellipse;whiteSpace=wrap;html=1;align=center;" vertex="1" parent="1">
          <mxGeometry x="457.5" y="100" width="70" height="30" as="geometry" />
        </mxCell>
        <mxCell id="mPEIdbcuHd-g_guQNKy6-55" value="&lt;font style=&quot;font-size: 8px;&quot;&gt;RegistrationDate&lt;/font&gt;" style="ellipse;whiteSpace=wrap;html=1;align=center;" vertex="1" parent="1">
          <mxGeometry x="467.5" y="140" width="70" height="30" as="geometry" />
        </mxCell>
        <mxCell id="mPEIdbcuHd-g_guQNKy6-56" value="Password" style="ellipse;whiteSpace=wrap;html=1;align=center;" vertex="1" parent="1">
          <mxGeometry x="260" y="160" width="70" height="30" as="geometry" />
        </mxCell>
        <mxCell id="mPEIdbcuHd-g_guQNKy6-57" value="Email" style="ellipse;whiteSpace=wrap;html=1;align=center;" vertex="1" parent="1">
          <mxGeometry x="280" y="120" width="70" height="30" as="geometry" />
        </mxCell>
        <mxCell id="mPEIdbcuHd-g_guQNKy6-58" value="" style="endArrow=none;html=1;rounded=0;entryX=0;entryY=0.25;entryDx=0;entryDy=0;exitX=1;exitY=0.5;exitDx=0;exitDy=0;" edge="1" parent="1" source="mPEIdbcuHd-g_guQNKy6-56" target="mPEIdbcuHd-g_guQNKy6-1">
          <mxGeometry relative="1" as="geometry">
            <mxPoint x="330" y="190" as="sourcePoint" />
            <mxPoint x="490" y="190" as="targetPoint" />
          </mxGeometry>
        </mxCell>
        <mxCell id="mPEIdbcuHd-g_guQNKy6-60" value="" style="endArrow=none;html=1;rounded=0;entryX=0.124;entryY=0.011;entryDx=0;entryDy=0;exitX=0.93;exitY=0.725;exitDx=0;exitDy=0;exitPerimeter=0;entryPerimeter=0;" edge="1" parent="1" source="mPEIdbcuHd-g_guQNKy6-57" target="mPEIdbcuHd-g_guQNKy6-1">
          <mxGeometry relative="1" as="geometry">
            <mxPoint x="340" y="157" as="sourcePoint" />
            <mxPoint x="368" y="170" as="targetPoint" />
          </mxGeometry>
        </mxCell>
        <mxCell id="mPEIdbcuHd-g_guQNKy6-61" value="" style="endArrow=none;html=1;rounded=0;entryX=0.309;entryY=0.011;entryDx=0;entryDy=0;exitX=0.5;exitY=1;exitDx=0;exitDy=0;entryPerimeter=0;" edge="1" parent="1" source="mPEIdbcuHd-g_guQNKy6-52" target="mPEIdbcuHd-g_guQNKy6-1">
          <mxGeometry relative="1" as="geometry">
            <mxPoint x="350" y="120" as="sourcePoint" />
            <mxPoint x="385" y="158" as="targetPoint" />
          </mxGeometry>
        </mxCell>
        <mxCell id="mPEIdbcuHd-g_guQNKy6-62" value="" style="endArrow=none;html=1;rounded=0;entryX=0.405;entryY=-0.005;entryDx=0;entryDy=0;exitX=0.244;exitY=0.955;exitDx=0;exitDy=0;exitPerimeter=0;entryPerimeter=0;" edge="1" parent="1" source="mPEIdbcuHd-g_guQNKy6-51" target="mPEIdbcuHd-g_guQNKy6-1">
          <mxGeometry relative="1" as="geometry">
            <mxPoint x="412.5" y="100" as="sourcePoint" />
            <mxPoint x="447.5" y="138" as="targetPoint" />
          </mxGeometry>
        </mxCell>
        <mxCell id="mPEIdbcuHd-g_guQNKy6-63" value="" style="endArrow=none;html=1;rounded=0;entryX=0.557;entryY=-0.021;entryDx=0;entryDy=0;exitX=0.044;exitY=0.667;exitDx=0;exitDy=0;exitPerimeter=0;entryPerimeter=0;" edge="1" parent="1" source="mPEIdbcuHd-g_guQNKy6-54" target="mPEIdbcuHd-g_guQNKy6-1">
          <mxGeometry relative="1" as="geometry">
            <mxPoint x="450" y="122" as="sourcePoint" />
            <mxPoint x="485" y="160" as="targetPoint" />
          </mxGeometry>
        </mxCell>
        <mxCell id="mPEIdbcuHd-g_guQNKy6-64" value="" style="endArrow=none;html=1;rounded=0;entryX=0.825;entryY=0;entryDx=0;entryDy=0;exitX=-0.009;exitY=0.614;exitDx=0;exitDy=0;exitPerimeter=0;entryPerimeter=0;" edge="1" parent="1" source="mPEIdbcuHd-g_guQNKy6-55" target="mPEIdbcuHd-g_guQNKy6-1">
          <mxGeometry relative="1" as="geometry">
            <mxPoint x="477.5" y="152" as="sourcePoint" />
            <mxPoint x="512.5" y="190" as="targetPoint" />
          </mxGeometry>
        </mxCell>
        <mxCell id="mPEIdbcuHd-g_guQNKy6-65" value="MediaID" style="ellipse;whiteSpace=wrap;html=1;align=center;fontStyle=4;" vertex="1" parent="1">
          <mxGeometry x="20" y="220" width="72.5" height="30" as="geometry" />
        </mxCell>
        <mxCell id="mPEIdbcuHd-g_guQNKy6-66" value="" style="endArrow=none;html=1;rounded=0;entryX=0;entryY=0;entryDx=0;entryDy=0;exitX=0.5;exitY=1;exitDx=0;exitDy=0;" edge="1" parent="1" source="mPEIdbcuHd-g_guQNKy6-65" target="mPEIdbcuHd-g_guQNKy6-7">
          <mxGeometry relative="1" as="geometry">
            <mxPoint x="81" y="229.5" as="sourcePoint" />
            <mxPoint x="70" y="310.5" as="targetPoint" />
          </mxGeometry>
        </mxCell>
        <mxCell id="mPEIdbcuHd-g_guQNKy6-67" value="FileName" style="ellipse;whiteSpace=wrap;html=1;align=center;" vertex="1" parent="1">
          <mxGeometry x="80" y="180" width="70" height="30" as="geometry" />
        </mxCell>
        <mxCell id="mPEIdbcuHd-g_guQNKy6-68" value="" style="endArrow=none;html=1;rounded=0;entryX=0.344;entryY=0.036;entryDx=0;entryDy=0;exitX=0.422;exitY=1.001;exitDx=0;exitDy=0;exitPerimeter=0;entryPerimeter=0;" edge="1" parent="1" source="mPEIdbcuHd-g_guQNKy6-67" target="mPEIdbcuHd-g_guQNKy6-7">
          <mxGeometry relative="1" as="geometry">
            <mxPoint x="140" y="220" as="sourcePoint" />
            <mxPoint x="167" y="250" as="targetPoint" />
          </mxGeometry>
        </mxCell>
        <mxCell id="mPEIdbcuHd-g_guQNKy6-70" value="FileType" style="ellipse;whiteSpace=wrap;html=1;align=center;" vertex="1" parent="1">
          <mxGeometry x="162.5" y="180" width="70" height="30" as="geometry" />
        </mxCell>
        <mxCell id="mPEIdbcuHd-g_guQNKy6-71" value="" style="endArrow=none;html=1;rounded=0;entryX=0.606;entryY=-0.01;entryDx=0;entryDy=0;exitX=0;exitY=1;exitDx=0;exitDy=0;entryPerimeter=0;" edge="1" parent="1" source="mPEIdbcuHd-g_guQNKy6-70" target="mPEIdbcuHd-g_guQNKy6-7">
          <mxGeometry relative="1" as="geometry">
            <mxPoint x="165" y="230" as="sourcePoint" />
            <mxPoint x="160" y="281" as="targetPoint" />
          </mxGeometry>
        </mxCell>
        <mxCell id="mPEIdbcuHd-g_guQNKy6-73" value="UploadDate" style="ellipse;whiteSpace=wrap;html=1;align=center;" vertex="1" parent="1">
          <mxGeometry x="10" y="280" width="70" height="30" as="geometry" />
        </mxCell>
        <mxCell id="mPEIdbcuHd-g_guQNKy6-76" value="" style="endArrow=none;html=1;rounded=0;entryX=0;entryY=0.75;entryDx=0;entryDy=0;exitX=0.94;exitY=0.243;exitDx=0;exitDy=0;exitPerimeter=0;" edge="1" parent="1" source="mPEIdbcuHd-g_guQNKy6-73" target="mPEIdbcuHd-g_guQNKy6-7">
          <mxGeometry relative="1" as="geometry">
            <mxPoint x="66" y="260" as="sourcePoint" />
            <mxPoint x="103" y="270" as="targetPoint" />
          </mxGeometry>
        </mxCell>
        <mxCell id="mPEIdbcuHd-g_guQNKy6-77" value="" style="endArrow=none;html=1;rounded=0;entryX=0.545;entryY=0.011;entryDx=0;entryDy=0;exitX=0.13;exitY=1.024;exitDx=0;exitDy=0;entryPerimeter=0;exitPerimeter=0;" edge="1" parent="1" source="mPEIdbcuHd-g_guQNKy6-7" target="mPEIdbcuHd-g_guQNKy6-78">
          <mxGeometry relative="1" as="geometry">
            <mxPoint x="76" y="270" as="sourcePoint" />
            <mxPoint x="101.36999999999989" y="308.6500000000001" as="targetPoint" />
          </mxGeometry>
        </mxCell>
        <mxCell id="mPEIdbcuHd-g_guQNKy6-78" value="&lt;span style=&quot;border-bottom: 1px dotted&quot;&gt;UploadBy&lt;/span&gt;" style="ellipse;whiteSpace=wrap;html=1;align=center;" vertex="1" parent="1">
          <mxGeometry x="60" y="310" width="77" height="30" as="geometry" />
        </mxCell>
        <mxCell id="mPEIdbcuHd-g_guQNKy6-79" value="CommentID" style="ellipse;whiteSpace=wrap;html=1;align=center;fontStyle=4;" vertex="1" parent="1">
          <mxGeometry x="593.75" y="150" width="72.5" height="30" as="geometry" />
        </mxCell>
        <mxCell id="mPEIdbcuHd-g_guQNKy6-81" value="&lt;span style=&quot;border-bottom: 1px dotted&quot;&gt;UserID&lt;/span&gt;" style="ellipse;whiteSpace=wrap;html=1;align=center;" vertex="1" parent="1">
          <mxGeometry x="743.5" y="170" width="77" height="30" as="geometry" />
        </mxCell>
        <mxCell id="mPEIdbcuHd-g_guQNKy6-82" value="Content" style="ellipse;whiteSpace=wrap;html=1;align=center;" vertex="1" parent="1">
          <mxGeometry x="743.5" y="210" width="70" height="30" as="geometry" />
        </mxCell>
        <mxCell id="mPEIdbcuHd-g_guQNKy6-83" value="&lt;font style=&quot;font-size: 9px;&quot;&gt;CommentDate&lt;/font&gt;" style="ellipse;whiteSpace=wrap;html=1;align=center;" vertex="1" parent="1">
          <mxGeometry x="717.5" y="250" width="70" height="30" as="geometry" />
        </mxCell>
        <mxCell id="mPEIdbcuHd-g_guQNKy6-84" value="" style="endArrow=none;html=1;rounded=0;exitX=0.356;exitY=0.944;exitDx=0;exitDy=0;exitPerimeter=0;entryX=0.066;entryY=-0.045;entryDx=0;entryDy=0;entryPerimeter=0;" edge="1" parent="1" source="mPEIdbcuHd-g_guQNKy6-79" target="mPEIdbcuHd-g_guQNKy6-4">
          <mxGeometry relative="1" as="geometry">
            <mxPoint x="617.5" y="187.5" as="sourcePoint" />
            <mxPoint x="630" y="200" as="targetPoint" />
          </mxGeometry>
        </mxCell>
        <mxCell id="mPEIdbcuHd-g_guQNKy6-85" value="" style="endArrow=none;html=1;rounded=0;entryX=0.321;entryY=-0.022;entryDx=0;entryDy=0;exitX=0.094;exitY=0.737;exitDx=0;exitDy=0;entryPerimeter=0;exitPerimeter=0;" edge="1" parent="1" source="mPEIdbcuHd-g_guQNKy6-89" target="mPEIdbcuHd-g_guQNKy6-4">
          <mxGeometry relative="1" as="geometry">
            <mxPoint x="681.0028056930137" y="175.49892873539454" as="sourcePoint" />
            <mxPoint x="650" y="250" as="targetPoint" />
          </mxGeometry>
        </mxCell>
        <mxCell id="mPEIdbcuHd-g_guQNKy6-86" value="" style="endArrow=none;html=1;rounded=0;entryX=1;entryY=0;entryDx=0;entryDy=0;exitX=0.017;exitY=0.702;exitDx=0;exitDy=0;exitPerimeter=0;" edge="1" parent="1" source="mPEIdbcuHd-g_guQNKy6-81" target="mPEIdbcuHd-g_guQNKy6-4">
          <mxGeometry relative="1" as="geometry">
            <mxPoint x="710" y="262.5" as="sourcePoint" />
            <mxPoint x="690" y="317.5" as="targetPoint" />
          </mxGeometry>
        </mxCell>
        <mxCell id="mPEIdbcuHd-g_guQNKy6-87" value="" style="endArrow=none;html=1;rounded=0;entryX=1;entryY=0.75;entryDx=0;entryDy=0;exitX=0;exitY=0.5;exitDx=0;exitDy=0;" edge="1" parent="1" source="mPEIdbcuHd-g_guQNKy6-82" target="mPEIdbcuHd-g_guQNKy6-4">
          <mxGeometry relative="1" as="geometry">
            <mxPoint x="717.5" y="247.5" as="sourcePoint" />
            <mxPoint x="697.5" y="302.5" as="targetPoint" />
          </mxGeometry>
        </mxCell>
        <mxCell id="mPEIdbcuHd-g_guQNKy6-88" value="" style="endArrow=none;html=1;rounded=0;entryX=0;entryY=0;entryDx=0;entryDy=0;exitX=0.852;exitY=1.07;exitDx=0;exitDy=0;exitPerimeter=0;" edge="1" parent="1" source="mPEIdbcuHd-g_guQNKy6-4" target="mPEIdbcuHd-g_guQNKy6-83">
          <mxGeometry relative="1" as="geometry">
            <mxPoint x="700" y="255" as="sourcePoint" />
            <mxPoint x="680" y="310" as="targetPoint" />
          </mxGeometry>
        </mxCell>
        <mxCell id="mPEIdbcuHd-g_guQNKy6-89" value="&lt;span style=&quot;border-bottom: 1px dotted&quot;&gt;PostID&lt;/span&gt;" style="ellipse;whiteSpace=wrap;html=1;align=center;" vertex="1" parent="1">
          <mxGeometry x="670" y="150" width="77" height="30" as="geometry" />
        </mxCell>
        <mxCell id="mPEIdbcuHd-g_guQNKy6-90" value="" style="endArrow=none;html=1;rounded=0;entryX=0.416;entryY=0.966;entryDx=0;entryDy=0;entryPerimeter=0;" edge="1" parent="1" target="mPEIdbcuHd-g_guQNKy6-124">
          <mxGeometry relative="1" as="geometry">
            <mxPoint x="273.75" y="680" as="sourcePoint" />
            <mxPoint x="273.75" y="635" as="targetPoint" />
          </mxGeometry>
        </mxCell>
        <mxCell id="mPEIdbcuHd-g_guQNKy6-93" value="PostID" style="ellipse;whiteSpace=wrap;html=1;align=center;fontStyle=4;" vertex="1" parent="1">
          <mxGeometry x="193.75" y="360" width="72.5" height="30" as="geometry" />
        </mxCell>
        <mxCell id="mPEIdbcuHd-g_guQNKy6-94" value="&lt;span style=&quot;border-bottom: 1px dotted&quot;&gt;AuthorID&lt;/span&gt;" style="ellipse;whiteSpace=wrap;html=1;align=center;" vertex="1" parent="1">
          <mxGeometry x="110" y="360" width="77" height="30" as="geometry" />
        </mxCell>
        <mxCell id="mPEIdbcuHd-g_guQNKy6-95" value="Content" style="ellipse;whiteSpace=wrap;html=1;align=center;" vertex="1" parent="1">
          <mxGeometry x="50.5" y="380" width="70" height="30" as="geometry" />
        </mxCell>
        <mxCell id="mPEIdbcuHd-g_guQNKy6-96" value="Title" style="ellipse;whiteSpace=wrap;html=1;align=center;" vertex="1" parent="1">
          <mxGeometry x="40" y="415" width="70" height="30" as="geometry" />
        </mxCell>
        <mxCell id="mPEIdbcuHd-g_guQNKy6-97" value="PublishDate" style="ellipse;whiteSpace=wrap;html=1;align=center;" vertex="1" parent="1">
          <mxGeometry x="40" y="450" width="70" height="30" as="geometry" />
        </mxCell>
        <mxCell id="mPEIdbcuHd-g_guQNKy6-98" value="Status" style="ellipse;whiteSpace=wrap;html=1;align=center;" vertex="1" parent="1">
          <mxGeometry x="50.5" y="495" width="70" height="30" as="geometry" />
        </mxCell>
        <mxCell id="mPEIdbcuHd-g_guQNKy6-99" value="" style="endArrow=none;html=1;rounded=0;exitX=0.407;exitY=0.047;exitDx=0;exitDy=0;entryX=0.371;entryY=0.978;entryDx=0;entryDy=0;exitPerimeter=0;entryPerimeter=0;" edge="1" parent="1" source="mPEIdbcuHd-g_guQNKy6-2" target="mPEIdbcuHd-g_guQNKy6-93">
          <mxGeometry relative="1" as="geometry">
            <mxPoint x="220" y="455" as="sourcePoint" />
            <mxPoint x="220" y="390" as="targetPoint" />
          </mxGeometry>
        </mxCell>
        <mxCell id="mPEIdbcuHd-g_guQNKy6-100" value="" style="endArrow=none;html=1;rounded=0;exitX=0.324;exitY=0.024;exitDx=0;exitDy=0;entryX=0.73;entryY=0.886;entryDx=0;entryDy=0;entryPerimeter=0;exitPerimeter=0;" edge="1" parent="1" source="mPEIdbcuHd-g_guQNKy6-2" target="mPEIdbcuHd-g_guQNKy6-94">
          <mxGeometry relative="1" as="geometry">
            <mxPoint x="148.16" y="495" as="sourcePoint" />
            <mxPoint x="148.16" y="430" as="targetPoint" />
          </mxGeometry>
        </mxCell>
        <mxCell id="mPEIdbcuHd-g_guQNKy6-101" value="" style="endArrow=none;html=1;rounded=0;exitX=0;exitY=0;exitDx=0;exitDy=0;entryX=0.933;entryY=0.725;entryDx=0;entryDy=0;entryPerimeter=0;" edge="1" parent="1" source="mPEIdbcuHd-g_guQNKy6-2" target="mPEIdbcuHd-g_guQNKy6-95">
          <mxGeometry relative="1" as="geometry">
            <mxPoint x="130" y="507.5" as="sourcePoint" />
            <mxPoint x="130" y="442.5" as="targetPoint" />
          </mxGeometry>
        </mxCell>
        <mxCell id="mPEIdbcuHd-g_guQNKy6-102" value="" style="endArrow=none;html=1;rounded=0;entryX=1;entryY=0.5;entryDx=0;entryDy=0;exitX=0;exitY=0.25;exitDx=0;exitDy=0;" edge="1" parent="1" source="mPEIdbcuHd-g_guQNKy6-2" target="mPEIdbcuHd-g_guQNKy6-96">
          <mxGeometry relative="1" as="geometry">
            <mxPoint x="150" y="460" as="sourcePoint" />
            <mxPoint x="137" y="450" as="targetPoint" />
          </mxGeometry>
        </mxCell>
        <mxCell id="mPEIdbcuHd-g_guQNKy6-103" value="" style="endArrow=none;html=1;rounded=0;exitX=0;exitY=0.5;exitDx=0;exitDy=0;entryX=1;entryY=0.5;entryDx=0;entryDy=0;" edge="1" parent="1" source="mPEIdbcuHd-g_guQNKy6-2" target="mPEIdbcuHd-g_guQNKy6-97">
          <mxGeometry relative="1" as="geometry">
            <mxPoint x="137" y="525" as="sourcePoint" />
            <mxPoint x="137" y="460" as="targetPoint" />
          </mxGeometry>
        </mxCell>
        <mxCell id="mPEIdbcuHd-g_guQNKy6-104" value="" style="endArrow=none;html=1;rounded=0;exitX=1;exitY=0;exitDx=0;exitDy=0;entryX=0;entryY=0.75;entryDx=0;entryDy=0;" edge="1" parent="1" source="mPEIdbcuHd-g_guQNKy6-98" target="mPEIdbcuHd-g_guQNKy6-2">
          <mxGeometry relative="1" as="geometry">
            <mxPoint x="160" y="550" as="sourcePoint" />
            <mxPoint x="160" y="485" as="targetPoint" />
          </mxGeometry>
        </mxCell>
        <mxCell id="mPEIdbcuHd-g_guQNKy6-105" value="CategoryID" style="ellipse;whiteSpace=wrap;html=1;align=center;fontStyle=4;" vertex="1" parent="1">
          <mxGeometry x="33.75" y="630" width="72.5" height="30" as="geometry" />
        </mxCell>
        <mxCell id="mPEIdbcuHd-g_guQNKy6-106" value="" style="endArrow=none;html=1;rounded=0;exitX=1;exitY=0.5;exitDx=0;exitDy=0;entryX=0;entryY=0;entryDx=0;entryDy=0;" edge="1" parent="1" source="mPEIdbcuHd-g_guQNKy6-105" target="mPEIdbcuHd-g_guQNKy6-5">
          <mxGeometry relative="1" as="geometry">
            <mxPoint x="103.75" y="757" as="sourcePoint" />
            <mxPoint x="123.75" y="700" as="targetPoint" />
          </mxGeometry>
        </mxCell>
        <mxCell id="mPEIdbcuHd-g_guQNKy6-107" value="&lt;font style=&quot;font-size: 9px;&quot;&gt;CategoryName&lt;/font&gt;" style="ellipse;whiteSpace=wrap;html=1;align=center;" vertex="1" parent="1">
          <mxGeometry x="23.75" y="665" width="70" height="30" as="geometry" />
        </mxCell>
        <mxCell id="mPEIdbcuHd-g_guQNKy6-108" value="Description" style="ellipse;whiteSpace=wrap;html=1;align=center;" vertex="1" parent="1">
          <mxGeometry x="33.75" y="700" width="70" height="30" as="geometry" />
        </mxCell>
        <mxCell id="mPEIdbcuHd-g_guQNKy6-111" value="" style="endArrow=none;html=1;rounded=0;exitX=1;exitY=0.5;exitDx=0;exitDy=0;entryX=0;entryY=0.5;entryDx=0;entryDy=0;" edge="1" parent="1" source="mPEIdbcuHd-g_guQNKy6-107" target="mPEIdbcuHd-g_guQNKy6-5">
          <mxGeometry relative="1" as="geometry">
            <mxPoint x="97.75" y="695" as="sourcePoint" />
            <mxPoint x="139.75" y="730" as="targetPoint" />
          </mxGeometry>
        </mxCell>
        <mxCell id="mPEIdbcuHd-g_guQNKy6-112" value="" style="endArrow=none;html=1;rounded=0;exitX=1;exitY=0.5;exitDx=0;exitDy=0;entryX=0;entryY=1;entryDx=0;entryDy=0;" edge="1" parent="1" source="mPEIdbcuHd-g_guQNKy6-108" target="mPEIdbcuHd-g_guQNKy6-5">
          <mxGeometry relative="1" as="geometry">
            <mxPoint x="114.25" y="710" as="sourcePoint" />
            <mxPoint x="156.25" y="745" as="targetPoint" />
          </mxGeometry>
        </mxCell>
        <mxCell id="mPEIdbcuHd-g_guQNKy6-115" value="TagID" style="ellipse;whiteSpace=wrap;html=1;align=center;fontStyle=4;" vertex="1" parent="1">
          <mxGeometry x="303.75" y="630" width="72.5" height="30" as="geometry" />
        </mxCell>
        <mxCell id="mPEIdbcuHd-g_guQNKy6-116" value="TagName" style="ellipse;whiteSpace=wrap;html=1;align=center;" vertex="1" parent="1">
          <mxGeometry x="366.25" y="660" width="70" height="30" as="geometry" />
        </mxCell>
        <mxCell id="mPEIdbcuHd-g_guQNKy6-117" value="" style="endArrow=none;html=1;rounded=0;exitX=0.399;exitY=1.013;exitDx=0;exitDy=0;entryX=0.576;entryY=-0.01;entryDx=0;entryDy=0;exitPerimeter=0;entryPerimeter=0;" edge="1" parent="1" source="mPEIdbcuHd-g_guQNKy6-115" target="mPEIdbcuHd-g_guQNKy6-6">
          <mxGeometry relative="1" as="geometry">
            <mxPoint x="378.75" y="700" as="sourcePoint" />
            <mxPoint x="399.75" y="735" as="targetPoint" />
          </mxGeometry>
        </mxCell>
        <mxCell id="mPEIdbcuHd-g_guQNKy6-118" value="" style="endArrow=none;html=1;rounded=0;exitX=0;exitY=0.5;exitDx=0;exitDy=0;entryX=1;entryY=0;entryDx=0;entryDy=0;" edge="1" parent="1" source="mPEIdbcuHd-g_guQNKy6-116" target="mPEIdbcuHd-g_guQNKy6-6">
          <mxGeometry relative="1" as="geometry">
            <mxPoint x="376.75" y="710" as="sourcePoint" />
            <mxPoint x="343.75" y="730" as="targetPoint" />
          </mxGeometry>
        </mxCell>
        <mxCell id="mPEIdbcuHd-g_guQNKy6-123" value="categorizes" style="shape=associativeEntity;whiteSpace=wrap;html=1;align=center;fillColor=#d5e8d4;strokeColor=#82b366;" vertex="1" parent="1">
          <mxGeometry x="120.5" y="530" width="102.5" height="50" as="geometry" />
        </mxCell>
        <mxCell id="mPEIdbcuHd-g_guQNKy6-124" value="tagged" style="shape=associativeEntity;whiteSpace=wrap;html=1;align=center;fillColor=#d5e8d4;strokeColor=#82b366;" vertex="1" parent="1">
          <mxGeometry x="232.5" y="530" width="102.5" height="50" as="geometry" />
        </mxCell>
      </root>
    </mxGraphModel>
  </diagram>
</mxfile>
